<svg id="_x3C__ÎÓÈ_x3E_" data-name="_x3C_—ÎÓÈ_x3E_" xmlns="http://www.w3.org/2000/svg" viewBox="0 0 673.63 454.76"><defs><style>.cls-1,.cls-10,.cls-11,.cls-12,.cls-13,.cls-14,.cls-15,.cls-16,.cls-17,.cls-2,.cls-3,.cls-4,.cls-5,.cls-6,.cls-7,.cls-8,.cls-9{fill:#f3f;}.cls-1{opacity:0.02;}.cls-2{opacity:0.08;}.cls-3{opacity:0.14;}.cls-4{opacity:0.2;}.cls-5{opacity:0.27;}.cls-6{opacity:0.33;}.cls-7{opacity:0.39;}.cls-8{opacity:0.45;}.cls-9{opacity:0.51;}.cls-10{opacity:0.57;}.cls-11{opacity:0.63;}.cls-12{opacity:0.69;}.cls-13{opacity:0.76;}.cls-14{opacity:0.82;}.cls-15{opacity:0.88;}.cls-16{opacity:0.94;}.cls-18{fill:#ffd9ff;}</style></defs><g id="Mail"><path class="cls-1" d="M123.56,610.17c-13.77,0-33.64-2.52-48.92-22.83-12.48-16.59-12.33-33.75-12.26-41.07,0-.59,0-1.14,0-1.62V217.89c.07-11.4,1.73-28.16,15.41-43.48a55.64,55.64,0,0,1,41.54-19H674.19c13.8-.1,34,2.21,49.53,22.83,12.5,16.61,12.33,33.76,12.26,41.09,0,.59,0,1.12,0,1.6V547.69c-.07,11.4-1.74,28.16-15.42,43.47a55.58,55.58,0,0,1-41.53,19H123.56Zm-23-66c0,.74,0,1.57,0,2.46,0,5.16-.09,10.49,4.12,16.08,3.79,5,7.8,7.62,19,7.62H678.91a18.92,18.92,0,0,0,13.71-6.26c3.88-4.35,5.18-8.5,5.23-16.5V221.4c0-.74,0-1.57,0-2.47,0-5.15.1-10.47-4.12-16.07-4.43-5.89-9-7.75-19.45-7.62H119.46a18.77,18.77,0,0,0-13.72,6.27c-3.88,4.35-5.19,8.49-5.23,16.5Z" transform="translate(-62.37 -155.4)"/><path class="cls-2" d="M123.56,609.34c-13.6,0-33.23-2.49-48.29-22.52C63,570.47,63.1,554.13,63.17,546.28c0-.61,0-1.15,0-1.64V217.89c.07-11.25,1.72-27.81,15.21-42.91a54.82,54.82,0,0,1,41-18.74H674.19c14.74-.1,33.78,2.41,48.9,22.51,12.33,16.38,12.17,33.33,12.1,40.57,0,.6,0,1.14,0,1.62V547.69c-.06,11.25-1.71,27.81-15.2,42.91a55,55,0,0,1-41.26,18.74H123.56ZM99.71,544.19c0,.74,0,1.55,0,2.45,0,5.29-.1,10.77,4.28,16.59,4.56,6.07,9.44,8,20.08,7.93H679a19.46,19.46,0,0,0,14.18-6.53c4-4.52,5.4-8.81,5.44-17.06V221.39c0-.74,0-1.56,0-2.45.05-5.05.1-10.77-4.28-16.6-4.56-6.06-9.41-8-20.09-7.93H119.57A19.66,19.66,0,0,0,105.16,201c-4,4.52-5.4,8.8-5.45,17.06Z" transform="translate(-62.37 -155.4)"/><path class="cls-3" d="M123.57,608.51c-13.44,0-32.82-2.45-47.68-22.2-12.14-16.13-12-32.27-11.92-40,0-.62,0-1.17,0-1.66V217.89c.06-11.11,1.69-27.46,15-42.34a54,54,0,0,1,40.37-18.48H674.19c14.58-.1,33.37,2.38,48.28,22.19,12.15,16.15,12,32.3,11.92,40.05,0,.61,0,1.16,0,1.64V547.69c-.06,11.11-1.69,27.45-15,42.34a54,54,0,0,1-40.67,18.48H123.57ZM98.92,544.2c0,.73,0,1.54,0,2.43,0,5.19-.1,11.07,4.45,17.12,4.68,6.22,9.88,8.38,20.71,8.24H678.9a20.4,20.4,0,0,0,14.88-6.8c4.15-4.64,5.61-9.23,5.66-17.61V221.39c0-.74,0-1.55,0-2.45,0-5.18.11-11.05-4.45-17.11-4.74-6.3-9.74-8.35-20.71-8.25H119.57a20.39,20.39,0,0,0-15,6.8C100.43,205,99,209.61,98.92,218Z" transform="translate(-62.37 -155.4)"/><path class="cls-4" d="M123.57,607.68c-13.27,0-32.41-2.42-47-21.88-12-15.9-11.83-31.85-11.76-39.51,0-.62,0-1.18,0-1.68V217.89c.07-11,1.67-27.1,14.78-41.78a53.27,53.27,0,0,1,39.79-18.21H674.19c14.47-.1,33,2.34,47.65,21.88,12,15.92,11.83,31.86,11.76,39.52,0,.62,0,1.17,0,1.67V547.69c-.07,11-1.67,27.1-14.78,41.77A53.25,53.25,0,0,1,679,607.68H123.57ZM98.13,544.2c0,.73,0,1.54,0,2.42-.05,5.32-.1,11.36,4.62,17.64,4.87,6.46,10.27,8.68,21.34,8.56H678.9a20.87,20.87,0,0,0,15.47-7.07c4.3-4.81,5.81-9.54,5.86-18.17V221.38c0-.73,0-1.54,0-2.43,0-5.32.11-11.34-4.63-17.63-4.85-6.46-10-8.57-20.89-8.57H119.57A21,21,0,0,0,104,199.82c-4.3,4.81-5.81,9.55-5.86,18.18Z" transform="translate(-62.37 -155.4)"/><path class="cls-5" d="M123.58,606.85c-13.11,0-32-2.38-46.44-21.57-11.79-15.67-11.65-31.41-11.59-39,0-.63,0-1.2,0-1.7V217.89c.07-11.73,1.78-26.91,14.56-41.21a52.44,52.44,0,0,1,39.56-18H674.19c14.27-.1,32.55,2.31,47,21.56,11.81,15.69,11.66,31.44,11.59,39,0,.63,0,1.19,0,1.69V547.69c-.07,11.73-1.78,26.91-14.56,41.21a52.69,52.69,0,0,1-39.5,18H123.58ZM97.33,544.2c0,.73,0,1.53,0,2.41,0,5.46-.11,11.65,4.79,18.16,5,6.7,10.57,9,22,8.88h554.8A21.88,21.88,0,0,0,695,566.32c4.45-5,6-9.87,6.08-18.74V221.38c0-.73,0-1.53,0-2.42.05-5.18.11-11.64-4.79-18.16-5-6.7-10.59-9-22-8.88H119.44a21.67,21.67,0,0,0-16,7.34c-4.45,5-6,9.86-6.08,18.73Z" transform="translate(-62.37 -155.4)"/><path class="cls-6" d="M123.54,606c-14,0-31.72-2.55-45.78-21.25-11.62-15.44-11.48-31-11.41-38.46,0-.64,0-1.21,0-1.73V217.89c.07-11.57,1.76-26.55,14.35-40.65a51.71,51.71,0,0,1,38.63-17.68H674.19c14-.05,32.14,2.27,46.4,21.24,11.64,15.46,11.49,31,11.42,38.49,0,.63,0,1.2,0,1.7v326.7c-.07,11.57-1.76,26.55-14.35,40.64A51.8,51.8,0,0,1,678.74,606H123.54Zm-27-61.81c0,.72,0,1.52,0,2.39,0,5.33-.1,11.95,5,18.68s10.92,9.21,22.17,9.21H679a22.43,22.43,0,0,0,16.51-7.61c4.6-5.15,6.23-10.18,6.28-19.29V221.37c0-.72,0-1.52,0-2.4,0-5.32.11-11.93-5-18.68-5.22-6.94-10.92-9.27-22.59-9.2H119.57a22.58,22.58,0,0,0-16.75,7.61c-4.6,5.15-6.23,10.18-6.28,19.29Z" transform="translate(-62.37 -155.4)"/><path class="cls-7" d="M123.55,605.19c-13.8,0-31.31-2.52-45.16-20.93-11.45-15.21-11.31-30.56-11.25-37.94,0-.65,0-1.23,0-1.75V217.89c.06-11.42,1.73-26.2,14.13-40.08a51.65,51.65,0,0,1,38.06-17.42H674.19c13.92-.1,31.72,2.24,45.78,20.93,11.47,15.23,11.32,30.58,11.25,38,0,.64,0,1.22,0,1.73V547.69c-.06,11.41-1.73,26.2-14.13,40.08a51.81,51.81,0,0,1-38.33,17.42H123.55Zm-27.81-61c0,.72,0,1.51,0,2.39,0,5.45-.11,12.23,5.13,19.2s11.26,9.52,22.8,9.52H678.88a23.25,23.25,0,0,0,17.24-7.87c4.7-5.25,6.44-10.62,6.5-19.85V221.36c0-.71,0-1.51,0-2.38,0-5.45.12-12.23-5.13-19.2s-11.11-9.52-22.78-9.52H119.43a23.26,23.26,0,0,0-17.19,7.87c-4.7,5.26-6.44,10.62-6.5,19.85Z" transform="translate(-62.37 -155.4)"/><path class="cls-8" d="M123.56,604.36c-13.63,0-30.91-2.48-44.55-20.61-11.27-15-11.14-30.14-11.07-37.43,0-.65,0-1.24,0-1.76V217.89c.07-11.26,1.71-25.84,13.92-39.51a50.86,50.86,0,0,1,37.48-17.16H674.19c13.75-.14,31.31,2.2,45.16,20.61,11.29,15,11.14,30.16,11.07,37.44,0,.65,0,1.23,0,1.75V547.69c-.07,11.26-1.71,25.84-13.92,39.51A50.86,50.86,0,0,1,679,604.36H123.56ZM95,544.22c0,.71,0,1.5,0,2.37,0,5.58-.11,12.53,5.31,19.72s11.7,9.88,23.85,9.83H679A24,24,0,0,0,696.7,568c4.85-5.43,6.66-11,6.71-20.41V221.36c0-.71,0-1.5,0-2.37.05-5.58.12-12.52-5.31-19.73s-11.76-10-23.85-9.83H119.57a23.74,23.74,0,0,0-17.92,8.14C96.81,203,95,208.51,95,218Z" transform="translate(-62.37 -155.4)"/><path class="cls-9" d="M123.56,603.53c-13.44,0-30.49-2.44-43.92-20.3-11.11-14.75-11-29.71-10.91-36.9,0-.66,0-1.26,0-1.79V217.89c.07-11.1,1.68-25.49,13.71-38.95a50.09,50.09,0,0,1,36.9-16.89H674.19c13.57-.15,30.9,2.17,44.53,20.29,11.12,14.78,11,29.73,10.91,36.92,0,.66,0,1.25,0,1.77V547.69c-.06,11.1-1.68,25.48-13.7,38.94a50.06,50.06,0,0,1-36.9,16.9H123.56ZM94.15,544.22c0,.71,0,1.5,0,2.36-.05,5.71-.12,12.82,5.47,20.24S111.72,577,124.1,577H679a24.81,24.81,0,0,0,18.27-8.41c5-5.6,6.86-11.27,6.92-21V221.35c0-.7,0-1.49,0-2.35,0-5.41.12-12.81-5.47-20.25-6.44-8.56-13.86-10.26-24.48-10.15H119.42A24.83,24.83,0,0,0,101.07,197c-5,5.59-6.86,11.26-6.92,21Z" transform="translate(-62.37 -155.4)"/><path class="cls-10" d="M123.57,602.7c-13.27,0-30.09-2.4-43.31-20-10.93-14.53-10.8-29.29-10.73-36.38,0-.67,0-1.27,0-1.81V217.89c.06-10.95,1.65-25.13,13.49-38.38a49.28,49.28,0,0,1,36.32-16.63H674.19c13.34-.12,30.49,2.14,43.91,20,10.94,14.55,10.8,29.31,10.73,36.4,0,.67,0,1.27,0,1.8V547.69c-.06,10.95-1.65,25.13-13.49,38.38A49.28,49.28,0,0,1,679,602.7H123.57ZM93.36,544.23c0,.7,0,1.48,0,2.34,0,5.54-.12,13.11,5.64,20.77s12.59,10.53,25.11,10.46H679a25.56,25.56,0,0,0,18.85-8.67c5.15-5.76,7.07-11.58,7.13-21.52V221.35c0-.7,0-1.49,0-2.35.06-5.53.13-13.1-5.64-20.76-6.64-8.83-14.21-10.59-25.11-10.47H119.57a25.87,25.87,0,0,0-19.08,8.67C95.34,202.21,93.42,208,93.36,218Z" transform="translate(-62.37 -155.4)"/><path class="cls-11" d="M123.58,601.87c-13.1,0-29.68-2.36-42.69-19.66-10.76-14.3-10.63-28.86-10.57-35.86,0-.68,0-1.29,0-1.83V217.89c.07-10.79,1.63-24.77,13.28-37.82a48.53,48.53,0,0,1,35.74-16.37H674.19c13.19-.15,30.08,2.1,43.28,19.66,10.78,14.31,10.64,28.88,10.57,35.87,0,.68,0,1.28,0,1.82V547.69c-.07,10.79-1.63,24.77-13.28,37.81a48.64,48.64,0,0,1-36,16.37H123.58Zm-31-57.64q0,1,0,2.34c0,5.65-.12,13.4,5.81,21.28s12.79,10.78,25.31,10.78H678.86a26.39,26.39,0,0,0,19.59-8.94c6-6.75,7.3-13.7,7.34-22.07V221.34c0-.69,0-1.47,0-2.33.05-5.65.13-13.39-5.81-21.28-6.85-9.1-14.59-10.84-25.74-10.79H119.57a26.46,26.46,0,0,0-19.67,8.94c-6,6.75-7.29,13.7-7.34,22.08Z" transform="translate(-62.37 -155.4)"/><path class="cls-12" d="M123.58,601c-12.92,0-29.27-2.33-42.07-19.35-10.59-14.06-10.46-28.43-10.4-35.33,0-.69,0-1.31,0-1.86V217.89c.06-10.64,1.6-24.42,13.06-37.25a47.79,47.79,0,0,1,35.46-16.1H674.19c13-.06,29.66,2.07,42.66,19.34,10.6,14.09,10.46,28.45,10.39,35.36,0,.68,0,1.29,0,1.84V547.69c-.06,10.63-1.6,24.41-13.06,37.24A47.69,47.69,0,0,1,679,601H123.58Zm-31.81-56.8c0,.69,0,1.47,0,2.32,0,5.78-.13,13.69,6,21.8s13.12,11.1,25.93,11.1H679a27.16,27.16,0,0,0,20-9.2c6.2-7,7.5-14.07,7.55-22.64V221.34c0-.7,0-1.47,0-2.32.06-5.77.13-13.68-6-21.81-7-9.32-15.33-11.22-26.37-11.1H119.4a27.2,27.2,0,0,0-20.08,9.21c-6.2,6.94-7.5,14.07-7.55,22.64Z" transform="translate(-62.37 -155.4)"/><path class="cls-13" d="M123.59,600.21c-12.74,0-28.86-2.29-41.45-19-10.42-13.84-10.29-28-10.23-34.82,0-.69,0-1.31,0-1.87V217.89c.06-10.48,1.58-24.06,12.85-36.68a46.93,46.93,0,0,1,34.58-15.84H674.19c13.62-.12,29.33,2.13,42,19,10.43,13.86,10.3,28,10.23,34.84q0,1,0,1.86v326.6c-.06,10.48-1.58,24.06-12.85,36.68a47.05,47.05,0,0,1-34.84,15.84H123.59ZM119.4,185.28a27.94,27.94,0,0,0-20.66,9.48C92.36,201.89,91,209.19,91,218V544.32c0,.55,0,1.35,0,2.23,0,5.9-.12,14,6.15,22.32s13.62,11.56,27,11.42H678.85a28.21,28.21,0,0,0,20.77-9.47c6.38-7.14,7.71-14.43,7.76-23.19V221.25c0-.54,0-1.34,0-2.22.05-5.57.13-14-6.16-22.33-7.21-9.59-15.7-11.5-27-11.42H119.4Z" transform="translate(-62.37 -155.4)"/><path class="cls-14" d="M123.6,599.38c-12.57,0-28.46-2.25-40.84-18.71-10.24-13.61-10.12-27.58-10.06-34.3,0-.7,0-1.33,0-1.9V217.89c.06-10.32,1.55-23.7,12.63-36.12a46.16,46.16,0,0,1,34-15.57H674.19c13.44-.08,28.92,2.09,41.41,18.7,10.26,13.63,10.12,27.61,10.06,34.32,0,.7,0,1.32,0,1.88V547.69c-.06,10.32-1.55,23.7-12.64,36.11a46.28,46.28,0,0,1-34.25,15.58H123.6Zm-4.21-414.93a28.78,28.78,0,0,0-21.24,9.74c-6.55,7.33-7.92,14.8-8,23.76V544.32c0,.56,0,1.35,0,2.22-.05,5.69-.13,14.28,6.32,22.85,7.28,9.68,16.13,11.73,27.14,11.73H679a28.75,28.75,0,0,0,21.19-9.74c6.55-7.33,7.91-14.79,8-23.75V221.25c0-.55,0-1.34,0-2.21.06-5.68.14-14.27-6.32-22.85-7.3-9.71-15.81-11.74-27.12-11.74H119.39Z" transform="translate(-62.37 -155.4)"/><path class="cls-15" d="M123.6,598.55c-12.39,0-28-2.21-40.21-18.39-10.07-13.38-10-26.65-9.89-33.78,0-.71,0-1.35,0-1.92V217.89c.06-10.17,1.52-23.35,12.42-35.55A45.28,45.28,0,0,1,119.63,167H674.19c13.26-.09,28.5,2.06,40.78,18.39,10.09,13.4,10,27.17,9.89,33.79,0,.71,0,1.34,0,1.91V547.69c-.06,10.17-1.53,23.35-12.43,35.55A45.32,45.32,0,0,1,679,598.55H123.6Zm-4.21-414.93a29.54,29.54,0,0,0-21.82,10c-6.72,7.52-8.13,15.16-8.18,24.31V544.32c0,.56,0,1.35,0,2.21,0,5.81-.13,14.57,6.5,23.37C103.46,580,112.64,582,124.13,582H679a29.56,29.56,0,0,0,21.77-10c6.72-7.53,8.13-15.16,8.18-24.31V221.25c0-.55,0-1.34,0-2.2,0-5.8.14-14.56-6.5-23.38-7.61-10.11-16.41-12.17-28.25-12H119.39Z" transform="translate(-62.37 -155.4)"/><path class="cls-16" d="M123.61,597.72c-12.22,0-27.64-2.17-39.6-18.08-9.9-13.15-9.78-26.23-9.72-33.25,0-.72,0-1.37,0-1.94V217.89c0-10,1.49-23,12.21-35a44.51,44.51,0,0,1,32.83-15H674.19c13-.12,28.09,2,40.16,18.07,9.91,13.17,9.79,26.25,9.72,33.27,0,.71,0,1.36,0,1.93V547.69c0,10-1.49,23-12.21,35a44.46,44.46,0,0,1-33.08,15.05H123.61Zm-4.23-414.93A30.31,30.31,0,0,0,97,193.07c-7.3,8.17-8.35,16.78-8.4,24.87V544.32c0,.57,0,1.35,0,2.21,0,5.91-.13,14.86,6.66,23.88,7.79,10.36,17.2,12.46,28.88,12.37h554.7a30.47,30.47,0,0,0,22.54-10.27c7.3-8.17,8.35-16.78,8.4-24.87V221.25c0-.56,0-1.34,0-2.2.06-5.91.14-14.85-6.66-23.89-7.81-10.38-16.81-12.43-28.88-12.37H119.38Z" transform="translate(-62.37 -155.4)"/><path class="cls-17" d="M123.57,596.89c-12.73,0-27.26-2.23-38.94-17.76-9.72-12.92-9.61-25.81-9.54-32.73,0-.73,0-1.38,0-2V217.89c.06-9.86,1.47-22.64,12-34.42a43.75,43.75,0,0,1,32.25-14.78H674.19c12.89-.07,27.68,2,39.53,17.75,9.74,12.94,9.62,25.83,9.55,32.76,0,.71,0,1.37,0,1.94V547.69c-.06,9.85-1.47,22.63-12,34.41a43.59,43.59,0,0,1-32.5,14.79H123.57ZM119.38,182a31.14,31.14,0,0,0-23,10.54c-7.48,8.38-8.55,17.17-8.6,25.43V544.32c0,.58,0,1.35,0,2.2-.06,6-.14,15.15,6.83,24.41,7.87,10.46,17.3,12.68,29,12.68H679A31.12,31.12,0,0,0,702,573.07c7.48-8.37,8.55-17.17,8.6-25.43V221.25c0-.57,0-1.34,0-2.19.06-6,.15-15.14-6.83-24.41-8-10.62-17.52-12.79-29.51-12.69H119.38Z" transform="translate(-62.37 -155.4)"/><path class="cls-18" d="M123.59,595.23c-12.37,0-26.44-2.15-37.71-17.12-9.38-12.47-9.26-25-9.2-31.7,0-.74,0-1.41,0-2V217.89c.06-10.14,1.48-22,11.57-33.29a42.18,42.18,0,0,1,31.09-14.26H674.76c12.37,0,26.45,2.15,37.72,17.13,9.39,12.48,9.27,25,9.2,31.71,0,.73,0,1.4,0,2V547.69c-.06,10.13-1.48,22-11.57,33.28A42.15,42.15,0,0,1,679,595.23H123.59ZM119.37,180.3a32.72,32.72,0,0,0-24.14,11.08c-7.84,8.78-9,18-9,26.54v326.4c0,.59,0,1.35,0,2.18-.06,6.27-.14,15.74,7.17,25.45,8.87,11.8,20,13.41,30.76,13.32H679a32.7,32.7,0,0,0,24.1-11.07c7.85-8.79,9-18,9-26.55V221.25c0-.58,0-1.34,0-2.17.06-5.88.16-15.73-7.17-25.46-8.38-11.14-18.37-13.38-30.76-13.32H119.37Z" transform="translate(-62.37 -155.4)"/><path class="cls-1" d="M399.21,430.82a55.54,55.54,0,0,1-30.11-9l-1-.66c-2.09-1.42-2.09-1.42-111.59-81.52L108.64,231.47A20.48,20.48,0,0,1,104,203.73a18.55,18.55,0,0,1,26.55-4.89L278.42,307.05c102.83,75.22,109,79.73,110.56,80.8l.37.25a18.24,18.24,0,0,0,19.66,0l.4-.28c1.69-1.16,5.33-3.82,98.39-71.9L667.85,198.84a18.56,18.56,0,0,1,26.55,4.89,20.48,20.48,0,0,1-4.68,27.74L529.67,348.56c-97.19,71.1-97.19,71.1-99.39,72.6l-1,.7A55.5,55.5,0,0,1,399.21,430.82Z" transform="translate(-62.37 -155.4)"/><path class="cls-2" d="M399.21,430a54.76,54.76,0,0,1-29.69-8.84l-.95-.64c-2.08-1.42-2.08-1.42-111.56-81.51L109.09,230.79a19.63,19.63,0,0,1-4.48-26.58,17.77,17.77,0,0,1,25.44-4.69L278,307.73c104.9,76.74,109,79.74,110.57,80.81l.38.26a19,19,0,0,0,20.51,0l.42-.29c1.7-1.16,5.33-3.82,98.4-71.91L668.31,199.52a17.78,17.78,0,0,1,25.44,4.69,19.63,19.63,0,0,1-4.48,26.58L529.21,347.88C432,419,432,419,429.85,420.47l-1,.68A54.71,54.71,0,0,1,399.21,430Z" transform="translate(-62.37 -155.4)"/><path class="cls-3" d="M399.21,429.16a54,54,0,0,1-29.27-8.71l-.93-.64c-2.07-1.41-2.07-1.41-111.55-81.49L109.55,230.11a18.78,18.78,0,0,1-4.29-25.43,17,17,0,0,1,24.34-4.48L277.51,308.41c104.91,76.75,109,79.74,110.6,80.83l.39.27a19.79,19.79,0,0,0,21.36,0l.42-.29c1.71-1.17,5.35-3.83,98.43-71.93L668.76,200.2a17,17,0,0,1,24.34,4.48,18.78,18.78,0,0,1-4.29,25.43l-160,117.09c-97.17,71.09-97.17,71.09-99.35,72.57l-1,.68A54,54,0,0,1,399.21,429.16Z" transform="translate(-62.37 -155.4)"/><path class="cls-4" d="M399.21,428.33a53.17,53.17,0,0,1-28.85-8.59l-.92-.62c-2.06-1.4-2.06-1.4-111.52-81.48L110,229.43a17.92,17.92,0,0,1-4.1-24.27,16.23,16.23,0,0,1,23.23-4.28L277.06,309.09c104.92,76.75,109,79.75,110.61,80.84l.4.28a20.54,20.54,0,0,0,22.21,0l.44-.3c1.72-1.18,5.35-3.84,98.44-71.94L669.22,200.88a16.23,16.23,0,0,1,23.23,4.28,17.93,17.93,0,0,1-4.1,24.27L528.3,346.52C431.14,417.6,431.14,417.6,429,419.08l-1,.66A53.21,53.21,0,0,1,399.21,428.33Z" transform="translate(-62.37 -155.4)"/><path class="cls-5" d="M399.2,427.5A52.51,52.51,0,0,1,370.77,419l-.9-.62c-2-1.39-2-1.39-111.5-81.46L110.46,228.75a17.07,17.07,0,0,1-3.9-23.11,15.46,15.46,0,0,1,22.13-4.08L276.6,309.77c104.93,76.76,109,79.76,110.64,80.86l.41.28a21.29,21.29,0,0,0,23.05,0l.45-.3c1.73-1.19,5.37-3.85,98.47-72l160-117.09a15.46,15.46,0,0,1,22.13,4.08,17.07,17.07,0,0,1-3.9,23.11l-160,117.09c-97.15,71.07-97.15,71.07-99.31,72.55l-1,.64A52.4,52.4,0,0,1,399.2,427.5Z" transform="translate(-62.37 -155.4)"/><path class="cls-6" d="M399.2,426.67a51.64,51.64,0,0,1-28-8.34l-.88-.6c-2-1.39-2-1.39-111.48-81.45L110.92,228.07a16.22,16.22,0,0,1-3.71-22,14.69,14.69,0,0,1,21-3.87L276.14,310.45c105,76.77,109,79.77,110.66,80.87l.43.29a22,22,0,0,0,23.9,0l.45-.31c1.75-1.19,5.38-3.85,98.5-72L670.13,202.24a14.69,14.69,0,0,1,21,3.87,16.22,16.22,0,0,1-3.71,22L527.39,345.16c-97.14,71.06-97.14,71.06-99.28,72.53l-.94.64A51.61,51.61,0,0,1,399.2,426.67Z" transform="translate(-62.37 -155.4)"/><path class="cls-7" d="M399.2,425.84a50.85,50.85,0,0,1-27.59-8.22l-.87-.58c-2-1.39-2-1.39-111.45-81.44L111.37,227.39a15.36,15.36,0,0,1-3.51-20.8,13.91,13.91,0,0,1,19.91-3.67L275.69,311.13c105,76.78,109.05,79.77,110.68,80.89l.43.29a22.8,22.8,0,0,0,24.75,0L412,392c1.76-1.2,5.39-3.86,98.51-72L670.59,202.92a13.91,13.91,0,0,1,19.91,3.67,15.36,15.36,0,0,1-3.51,20.8L526.93,344.48c-97.12,71.06-97.12,71.06-99.26,72.52l-.92.62A50.82,50.82,0,0,1,399.2,425.84Z" transform="translate(-62.37 -155.4)"/><path class="cls-8" d="M399.2,425A50.16,50.16,0,0,1,372,416.92l-.85-.58c-2-1.37-2-1.37-111.44-81.42L111.83,226.71a14.5,14.5,0,0,1-3.32-19.64,13.14,13.14,0,0,1,18.81-3.47L275.23,311.81c105,76.78,109.06,79.78,110.71,80.9l.44.3a23.59,23.59,0,0,0,25.6,0l.47-.33c1.77-1.21,5.41-3.87,98.54-72L671,203.6a13.14,13.14,0,0,1,18.81,3.47,14.5,14.5,0,0,1-3.32,19.64l-160,117.09c-97.12,71.05-97.12,71.05-99.24,72.5l-.9.62A50.19,50.19,0,0,1,399.2,425Z" transform="translate(-62.37 -155.4)"/><path class="cls-9" d="M399.2,424.18a49.35,49.35,0,0,1-26.76-8l-.83-.57c-2-1.36-2-1.36-111.41-81.4L112.28,226a13.66,13.66,0,0,1-3.12-18.49,12.37,12.37,0,0,1,17.7-3.26L274.78,312.49c105,76.79,109.07,79.79,110.72,80.92l.45.31a24.39,24.39,0,0,0,26.46,0l.48-.34c1.78-1.21,3.59-2.54,98.55-72L671.5,204.28a12.36,12.36,0,0,1,17.7,3.26A13.66,13.66,0,0,1,686.08,226L526,343.12c-97.1,71-97.1,71-99.22,72.49l-.88.6A49.32,49.32,0,0,1,399.2,424.18Z" transform="translate(-62.37 -155.4)"/><path class="cls-10" d="M399.2,423.35a48.64,48.64,0,0,1-26.34-7.84L372,415c-2-1.36-2-1.36-111.39-81.39L112.74,225.35A12.8,12.8,0,0,1,109.81,208a11.61,11.61,0,0,1,16.6-3.06L274.32,313.17C379.3,390,383.4,393,385.07,394.1l.46.32a25.13,25.13,0,0,0,27.3,0l.49-.34c1.79-1.22,3.61-2.55,98.58-72L672,205a11.61,11.61,0,0,1,16.6,3.06,12.8,12.8,0,0,1-2.93,17.33l-160,117.09c-97.1,71-97.1,71-99.2,72.47l-.87.6A48.61,48.61,0,0,1,399.2,423.35Z" transform="translate(-62.37 -155.4)"/><path class="cls-11" d="M399.2,422.52a47.85,47.85,0,0,1-25.92-7.72l-.8-.54c-2-1.36-2-1.36-111.37-81.38L113.19,224.67a12,12,0,0,1-2.73-16.18A10.83,10.83,0,0,1,126,205.64L273.87,313.85c107,78.31,109.09,79.8,110.76,80.95l.47.32a25.91,25.91,0,0,0,28.16,0l.5-.35c1.8-1.23,3.61-2.55,98.59-72L672.41,205.64a10.83,10.83,0,0,1,15.49,2.85,12,12,0,0,1-2.73,16.18L525.11,341.76c-97.08,71-97.08,71-99.18,72.46l-.85.58A47.85,47.85,0,0,1,399.2,422.52Z" transform="translate(-62.37 -155.4)"/><path class="cls-12" d="M399.19,421.69a47,47,0,0,1-25.49-7.59l-.79-.54c-2-1.34-2-1.34-111.35-81.36L113.65,224a11.09,11.09,0,0,1-2.54-15,10.06,10.06,0,0,1,14.39-2.65L273.41,314.53c107.06,78.31,109.1,79.81,110.79,81l.48.33a26.65,26.65,0,0,0,29,0l.51-.35c1.81-1.24,3.63-2.57,98.62-72.06L672.86,206.32A10.06,10.06,0,0,1,687.25,209a11.09,11.09,0,0,1-2.54,15L524.66,341.08c-97.08,71-97.08,71-99.16,72.44l-.84.58A47,47,0,0,1,399.19,421.69Z" transform="translate(-62.37 -155.4)"/><path class="cls-13" d="M399.19,420.86a46.26,46.26,0,0,1-25.07-7.47l-.77-.53c-2-1.33-2-1.33-111.33-81.34L114.11,223.31a10.24,10.24,0,0,1-2.35-13.86A9.28,9.28,0,0,1,125,207L273,315.2C380,393.53,382.07,395,383.77,396.19l.48.33a27.43,27.43,0,0,0,29.86,0l.52-.36c1.82-1.24,3.63-2.57,98.64-72.07L673.32,207a9.26,9.26,0,0,1,13.27,2.45,10.22,10.22,0,0,1-2.34,13.86L524.2,340.4c-97.06,71-97.06,71-99.14,72.43l-.82.56A46.24,46.24,0,0,1,399.19,420.86Z" transform="translate(-62.37 -155.4)"/><path class="cls-14" d="M399.19,420a45.53,45.53,0,0,1-24.66-7.35l-.75-.51c-1.95-1.33-1.95-1.33-111.31-81.33L114.56,222.63a9.39,9.39,0,0,1-2.14-12.71,8.49,8.49,0,0,1,12.16-2.24L272.5,315.89c107.08,78.33,109.12,79.83,110.83,81l.49.34a28.18,28.18,0,0,0,30.71,0l.53-.36c1.83-1.25,3.65-2.58,98.66-72.09l160-117.09a8.5,8.5,0,0,1,12.17,2.24,9.39,9.39,0,0,1-2.14,12.71l-160,117.09c-97.06,71-97.06,71-99.12,72.42l-.8.54A45.52,45.52,0,0,1,399.19,420Z" transform="translate(-62.37 -155.4)"/><path class="cls-15" d="M399.19,419.2A44.76,44.76,0,0,1,375,412l-.73-.5c-1.94-1.33-1.94-1.33-111.29-81.32L115,222a8.52,8.52,0,0,1-2-11.55,7.72,7.72,0,0,1,11.06-2L272,316.56c107.09,78.35,109.14,79.84,110.86,81l.5.34a28.94,28.94,0,0,0,31.56,0l.54-.37c1.84-1.26,3.65-2.58,98.68-72.1L674.23,208.36a7.72,7.72,0,0,1,11.06,2A8.52,8.52,0,0,1,683.34,222L523.29,339c-97,71-97,71-99.1,72.4l-.78.54A44.66,44.66,0,0,1,399.19,419.2Z" transform="translate(-62.37 -155.4)"/><path class="cls-16" d="M399.19,418.37a44,44,0,0,1-23.82-7.1l-.72-.49c-1.93-1.31-1.93-1.31-111.26-81.3L115.47,221.28a7.69,7.69,0,0,1-1.75-10.41,6.94,6.94,0,0,1,10-1.83L271.59,317.25c107.1,78.34,109.14,79.84,110.87,81l.51.35a29.72,29.72,0,0,0,32.42,0l.54-.37c1.85-1.27,3.67-2.6,98.7-72.12L674.69,209a6.94,6.94,0,0,1,9.95,1.83,7.69,7.69,0,0,1-1.75,10.41L522.83,338.36c-97,71-97,71-99.07,72.39l-.77.52A43.87,43.87,0,0,1,399.19,418.37Z" transform="translate(-62.37 -155.4)"/><path class="cls-17" d="M399.19,417.54a43.26,43.26,0,0,1-23.4-7l-.71-.48c-1.91-1.31-1.91-1.31-111.24-81.29L115.93,220.59a6.81,6.81,0,0,1-1.56-9.24,6.19,6.19,0,0,1,8.85-1.63l147.91,108.2C378.24,396.28,380.29,397.78,382,399l.51.35a30.48,30.48,0,0,0,33.27,0l.56-.38c1.86-1.27,3.67-2.6,98.72-72.13l160-117.09a6.19,6.19,0,0,1,8.85,1.63,6.81,6.81,0,0,1-1.56,9.24l-160,117.09c-97,71-97,71-99.06,72.37l-.75.52A43.16,43.16,0,0,1,399.19,417.54Z" transform="translate(-62.37 -155.4)"/><path class="cls-18" d="M399.19,415.88a41.66,41.66,0,0,1-22.57-6.73l-.67-.46c-1.89-1.29-1.89-1.29-111.2-81.25L116.84,219.23a5.11,5.11,0,0,1-1.17-6.93,4.64,4.64,0,0,1,6.64-1.22l147.91,108.2c108.16,79.13,109.19,79.88,110.94,81.08l.61.42a32,32,0,0,0,35-.09l.52-.36c1.86-1.27,2.78-1.95,98.76-72.16l160-117.09a4.64,4.64,0,0,1,6.64,1.22,5.11,5.11,0,0,1-1.17,6.93l-160,117.09c-97,71-97,71-99,72.34l-.58.41A41.72,41.72,0,0,1,399.19,415.88Z" transform="translate(-62.37 -155.4)"/><path class="cls-1" d="M119.58,570.33A18.7,18.7,0,0,1,105,563.22a20.53,20.53,0,0,1,2.35-28.06L285.56,378.91a18.51,18.51,0,0,1,26.86,2.46,20.55,20.55,0,0,1-2.35,28.06L131.83,565.67A18.46,18.46,0,0,1,119.58,570.33Z" transform="translate(-62.37 -155.4)"/><path class="cls-2" d="M119.58,569.5a17.9,17.9,0,0,1-14-6.81,19.67,19.67,0,0,1,2.25-26.89L286.07,379.55a17.74,17.74,0,0,1,25.74,2.35,19.69,19.69,0,0,1-2.25,26.89L131.32,565A17.74,17.74,0,0,1,119.58,569.5Z" transform="translate(-62.37 -155.4)"/><path class="cls-3" d="M119.58,568.67a17.1,17.1,0,0,1-13.39-6.52,18.82,18.82,0,0,1,2.15-25.72L286.58,380.18a17,17,0,0,1,24.62,2.25,18.83,18.83,0,0,1-2.15,25.72L130.81,564.4A17,17,0,0,1,119.58,568.67Z" transform="translate(-62.37 -155.4)"/><path class="cls-4" d="M119.58,567.84a16.36,16.36,0,0,1-12.79-6.22,18,18,0,0,1,2.06-24.55L287.09,380.82a16.18,16.18,0,0,1,23.5,2.15,18,18,0,0,1-2,24.55L130.3,563.77A16.19,16.19,0,0,1,119.58,567.84Z" transform="translate(-62.37 -155.4)"/><path class="cls-5" d="M119.58,567a15.61,15.61,0,0,1-12.18-5.93,17.12,17.12,0,0,1,2-23.39L287.6,381.46a15.42,15.42,0,0,1,22.38,2,17.1,17.1,0,0,1-2,23.38L129.78,563.13A15.41,15.41,0,0,1,119.58,567Z" transform="translate(-62.37 -155.4)"/><path class="cls-6" d="M119.58,566.19A14.81,14.81,0,0,1,108,560.55a16.26,16.26,0,0,1,1.86-22.21L288.11,382.09A14.65,14.65,0,0,1,309.37,384a16.26,16.26,0,0,1-1.86,22.22L129.27,562.5A14.68,14.68,0,0,1,119.58,566.19Z" transform="translate(-62.37 -155.4)"/><path class="cls-7" d="M119.58,565.36a14,14,0,0,1-11-5.34,15.39,15.39,0,0,1,1.76-21L288.62,382.73a13.88,13.88,0,0,1,20.15,1.84,15.4,15.4,0,0,1-1.77,21L128.76,561.86A13.86,13.86,0,0,1,119.58,565.36Z" transform="translate(-62.37 -155.4)"/><path class="cls-8" d="M119.58,564.53a13.26,13.26,0,0,1-10.35-5,14.55,14.55,0,0,1,1.66-19.88L289.13,383.36a13.11,13.11,0,0,1,19,1.74A14.55,14.55,0,0,1,306.49,405L128.25,561.23A13.14,13.14,0,0,1,119.58,564.53Z" transform="translate(-62.37 -155.4)"/><path class="cls-9" d="M119.58,563.7a12.46,12.46,0,0,1-9.74-4.75,13.69,13.69,0,0,1,1.56-18.7L289.64,384a12.34,12.34,0,0,1,17.91,1.63A13.69,13.69,0,0,1,306,404.34L127.74,560.59A12.32,12.32,0,0,1,119.58,563.7Z" transform="translate(-62.37 -155.4)"/><path class="cls-10" d="M119.58,562.87a11.69,11.69,0,0,1-9.13-4.45,12.84,12.84,0,0,1,1.46-17.54L290.15,384.63a11.58,11.58,0,0,1,16.79,1.54,12.83,12.83,0,0,1-1.47,17.53L127.23,560A11.55,11.55,0,0,1,119.58,562.87Z" transform="translate(-62.37 -155.4)"/><path class="cls-11" d="M119.58,562a10.94,10.94,0,0,1-8.53-4.15,12,12,0,0,1,1.37-16.37L290.66,385.27a10.8,10.8,0,0,1,15.67,1.43A12,12,0,0,1,305,403.07L126.72,559.32A10.82,10.82,0,0,1,119.58,562Z" transform="translate(-62.37 -155.4)"/><path class="cls-12" d="M119.58,561.21a10.16,10.16,0,0,1-7.92-3.86,11.13,11.13,0,0,1,1.28-15.2L291.18,385.9a10,10,0,0,1,14.54,1.34,11.11,11.11,0,0,1-1.27,15.19L126.21,558.68A10,10,0,0,1,119.58,561.21Z" transform="translate(-62.37 -155.4)"/><path class="cls-13" d="M119.58,560.38a9.36,9.36,0,0,1-7.31-3.56,10.27,10.27,0,0,1,1.18-14L291.69,386.54a9.24,9.24,0,0,1,13.42,1.23,10.27,10.27,0,0,1-1.17,14L125.7,558.05A9.29,9.29,0,0,1,119.58,560.38Z" transform="translate(-62.37 -155.4)"/><path class="cls-14" d="M119.58,559.55a8.57,8.57,0,0,1-6.7-3.26A9.41,9.41,0,0,1,114,543.43L292.2,387.18a8.48,8.48,0,0,1,12.31,1.12,9.41,9.41,0,0,1-1.08,12.86L125.19,557.41A8.46,8.46,0,0,1,119.58,559.55Z" transform="translate(-62.37 -155.4)"/><path class="cls-15" d="M119.58,558.72a7.78,7.78,0,0,1-6.09-3,8.56,8.56,0,0,1,1-11.69L292.71,387.81a7.72,7.72,0,0,1,11.19,1,8.57,8.57,0,0,1-1,11.7L124.68,556.77A7.69,7.69,0,0,1,119.58,558.72Z" transform="translate(-62.37 -155.4)"/><path class="cls-16" d="M119.58,557.89a7,7,0,0,1-5.48-2.67A7.69,7.69,0,0,1,115,544.7L293.22,388.45a6.94,6.94,0,0,1,10.07.92,7.7,7.7,0,0,1-.88,10.52L124.17,556.14A7,7,0,0,1,119.58,557.89Z" transform="translate(-62.37 -155.4)"/><path class="cls-17" d="M119.58,557.06a6.26,6.26,0,0,1-4.88-2.37,6.86,6.86,0,0,1,.79-9.36L293.73,389.08a6.17,6.17,0,0,1,8.95.82,6.83,6.83,0,0,1-.78,9.35L123.66,555.5A6.14,6.14,0,0,1,119.58,557.06Z" transform="translate(-62.37 -155.4)"/><path class="cls-18" d="M119.58,555.4a4.7,4.7,0,0,1-3.66-1.78,5.14,5.14,0,0,1,.59-7L294.75,390.36a4.62,4.62,0,0,1,6.71.61,5.13,5.13,0,0,1-.58,7L122.64,554.23A4.66,4.66,0,0,1,119.58,555.4Z" transform="translate(-62.37 -155.4)"/><path class="cls-1" d="M678.78,570.33a18.46,18.46,0,0,1-12.25-4.66L488.29,409.43a20.54,20.54,0,0,1-2.35-28.06,18.51,18.51,0,0,1,26.86-2.46L691,535.16a20.53,20.53,0,0,1,2.35,28.06A18.7,18.7,0,0,1,678.78,570.33Z" transform="translate(-62.37 -155.4)"/><path class="cls-2" d="M678.78,569.5A17.74,17.74,0,0,1,667,565L488.8,408.79a19.68,19.68,0,0,1-2.25-26.89,17.75,17.75,0,0,1,25.74-2.35L690.53,535.8a19.67,19.67,0,0,1,2.25,26.89A17.9,17.9,0,0,1,678.78,569.5Z" transform="translate(-62.37 -155.4)"/><path class="cls-3" d="M678.78,568.67a17,17,0,0,1-11.23-4.27L489.31,408.16a18.83,18.83,0,0,1-2.15-25.72,17,17,0,0,1,24.62-2.26L690,536.43a18.82,18.82,0,0,1,2.15,25.72A17.11,17.11,0,0,1,678.78,568.67Z" transform="translate(-62.37 -155.4)"/><path class="cls-4" d="M678.78,567.84a16.19,16.19,0,0,1-10.72-4.07L489.82,407.52A18,18,0,0,1,487.77,383a16.19,16.19,0,0,1,23.5-2.15L689.51,537.07a18,18,0,0,1,2,24.55A16.32,16.32,0,0,1,678.78,567.84Z" transform="translate(-62.37 -155.4)"/><path class="cls-5" d="M678.78,567a15.43,15.43,0,0,1-10.21-3.89L490.34,406.88a17.1,17.1,0,0,1-2-23.38,15.42,15.42,0,0,1,22.38-2L689,537.7a17.12,17.12,0,0,1,2,23.39A15.61,15.61,0,0,1,678.78,567Z" transform="translate(-62.37 -155.4)"/><path class="cls-6" d="M678.78,566.19a14.61,14.61,0,0,1-9.69-3.69L490.85,406.25A16.25,16.25,0,0,1,489,384a14.64,14.64,0,0,1,21.26-2L688.49,538.34a16.26,16.26,0,0,1,1.86,22.21A14.81,14.81,0,0,1,678.78,566.19Z" transform="translate(-62.37 -155.4)"/><path class="cls-7" d="M678.78,565.36a13.86,13.86,0,0,1-9.18-3.5L491.36,405.61a15.4,15.4,0,0,1-1.77-21,13.89,13.89,0,0,1,20.15-1.84L688,539a15.4,15.4,0,0,1,1.76,21A14,14,0,0,1,678.78,565.36Z" transform="translate(-62.37 -155.4)"/><path class="cls-8" d="M678.78,564.53a13.14,13.14,0,0,1-8.67-3.3L491.87,405a14.55,14.55,0,0,1-1.67-19.88,13.13,13.13,0,0,1,19-1.74L687.47,539.61a14.56,14.56,0,0,1,1.66,19.88A13.26,13.26,0,0,1,678.78,564.53Z" transform="translate(-62.37 -155.4)"/><path class="cls-9" d="M678.78,563.7a12.32,12.32,0,0,1-8.16-3.11L492.38,404.34a13.68,13.68,0,0,1-1.57-18.7A12.34,12.34,0,0,1,508.72,384L687,540.25a13.69,13.69,0,0,1,1.56,18.7A12.46,12.46,0,0,1,678.78,563.7Z" transform="translate(-62.37 -155.4)"/><path class="cls-10" d="M678.78,562.87a11.55,11.55,0,0,1-7.65-2.92L492.89,403.71a12.84,12.84,0,0,1-1.47-17.54,11.56,11.56,0,0,1,16.79-1.53L686.44,540.88a12.83,12.83,0,0,1,1.47,17.54A11.69,11.69,0,0,1,678.78,562.87Z" transform="translate(-62.37 -155.4)"/><path class="cls-11" d="M678.78,562a10.82,10.82,0,0,1-7.14-2.72L493.4,403.07A12,12,0,0,1,492,386.7a10.8,10.8,0,0,1,15.66-1.43L685.93,541.52a12,12,0,0,1,1.38,16.37A11,11,0,0,1,678.78,562Z" transform="translate(-62.37 -155.4)"/><path class="cls-12" d="M678.78,561.21a10,10,0,0,1-6.63-2.53L493.91,402.43a11.11,11.11,0,0,1-1.27-15.19,10,10,0,0,1,14.54-1.33L685.42,542.15a11.13,11.13,0,0,1,1.28,15.2A10.16,10.16,0,0,1,678.78,561.21Z" transform="translate(-62.37 -155.4)"/><path class="cls-13" d="M678.78,560.38a9.29,9.29,0,0,1-6.12-2.33L494.42,401.8a10.28,10.28,0,0,1-1.18-14,9.26,9.26,0,0,1,13.43-1.23L684.91,542.79a10.27,10.27,0,0,1,1.18,14A9.36,9.36,0,0,1,678.78,560.38Z" transform="translate(-62.37 -155.4)"/><path class="cls-14" d="M678.78,559.55a8.46,8.46,0,0,1-5.61-2.14L494.93,401.16a9.41,9.41,0,0,1-1.08-12.86,8.49,8.49,0,0,1,12.31-1.12L684.4,543.43a9.41,9.41,0,0,1,1.08,12.86A8.57,8.57,0,0,1,678.78,559.55Z" transform="translate(-62.37 -155.4)"/><path class="cls-15" d="M678.78,558.72a7.69,7.69,0,0,1-5.1-2L495.44,400.53a8.56,8.56,0,0,1-1-11.69,7.71,7.71,0,0,1,11.19-1L683.89,544.06a8.56,8.56,0,0,1,1,11.69A7.78,7.78,0,0,1,678.78,558.72Z" transform="translate(-62.37 -155.4)"/><path class="cls-16" d="M678.78,557.89a7,7,0,0,1-4.59-1.75L496,399.89a7.7,7.7,0,0,1-.88-10.52,6.94,6.94,0,0,1,10.07-.92L683.38,544.7a7.69,7.69,0,0,1,.88,10.52A7,7,0,0,1,678.78,557.89Z" transform="translate(-62.37 -155.4)"/><path class="cls-17" d="M678.78,557.06a6.14,6.14,0,0,1-4.08-1.56L496.46,399.26a6.85,6.85,0,0,1-.78-9.36,6.17,6.17,0,0,1,8.95-.82L682.87,545.33a6.85,6.85,0,0,1,.78,9.36A6.23,6.23,0,0,1,678.78,557.06Z" transform="translate(-62.37 -155.4)"/><path class="cls-18" d="M678.78,555.4a4.66,4.66,0,0,1-3.06-1.17L497.48,398a5.12,5.12,0,0,1-.58-7,4.62,4.62,0,0,1,6.71-.61L681.85,546.6a5.14,5.14,0,0,1,.59,7A4.71,4.71,0,0,1,678.78,555.4Z" transform="translate(-62.37 -155.4)"/></g></svg>