<svg id="Layer_1" data-name="Layer 1" xmlns="http://www.w3.org/2000/svg" viewBox="0 0 720.78 703.7"><defs><style>.cls-1{opacity:0.92;}.cls-2{fill:#fff;stroke:#fff;stroke-miterlimit:10;stroke-width:20px;}</style></defs><g class="cls-1"><path class="cls-2" d="M802.09,333.4a347.51,347.51,0,0,0-127-126.95q-80.21-46.8-175.11-46.8t-175.14,46.8a347.5,347.5,0,0,0-127,127q-46.8,80.21-46.8,175.13,0,114,66.54,205.09t172,126c8.17,1.53,14.24.47,18.16-3.15a17.8,17.8,0,0,0,5.91-13.64q0-1.35-.22-24.54t-.25-40.42l-10.42,1.82c-6.67,1.23-15.08,1.74-25.21,1.58A191.3,191.3,0,0,1,346,758.14a70.35,70.35,0,0,1-30.44-13.62,57.54,57.54,0,0,1-20-27.93L291,706.14c-3-7-7.79-14.67-14.29-23.17q-8.81-11.4-17.73-16.25a45.62,45.62,0,0,1-4.63-2.85l-.6-.42a34.74,34.74,0,0,1-5.9-5.47,24,24,0,0,1-4.08-6.35c-.9-2.12-.17-3.86,2.25-5.22a16.69,16.69,0,0,1,6.1-1.68,41,41,0,0,1,11,.22l5.17.77c6.05,1.2,13.57,4.85,22.49,10.9a73.41,73.41,0,0,1,22,23.62q10.46,18.63,25.21,28.4t29.76,9.75a130.5,130.5,0,0,0,25.89-2.26,90.91,90.91,0,0,0,20.44-6.81q4.1-30.47,22.25-46.8a309.14,309.14,0,0,1-46.56-8.2,183.1,183.1,0,0,1-42.69-17.72,122.45,122.45,0,0,1-36.59-30.41Q296,588,286.72,558.49t-9.31-68.14q0-55,35.88-93.6-16.83-41.33,3.19-92.65,13.14-4.11,39.06,6.13t37.93,17.48q12,7.26,19.3,12.28a328.05,328.05,0,0,1,174.46,0l17.26-10.92q17.68-10.9,41.79-20t36.81-5q20.42,51.34,3.62,92.68,35.89,38.6,35.88,93.57,0,38.6-9.31,68.37t-24.07,47.69a126.9,126.9,0,0,1-36.8,30.22,184.6,184.6,0,0,1-42.69,17.69,309.14,309.14,0,0,1-46.56,8.2Q586.77,683,586.77,727v95.86a18.06,18.06,0,0,0,5.69,13.61c3.78,3.62,9.75,4.71,17.94,3.18q105.39-35,171.92-126.08t66.57-205.08Q848.85,413.61,802.09,333.4Z" transform="translate(-139.61 -148.15)"/><path class="cls-2" d="M396.27,841.85a38.39,38.39,0,0,1-6.94-.7l-.2,0c-70.21-23.29-128.32-65.88-172.69-126.59s-66.83-130-66.83-206c0-63.27,15.82-122.44,47-175.88a350.52,350.52,0,0,1,127.49-127.5c53.45-31.19,112.63-47,175.89-47s122.42,15.81,175.87,47a350.5,350.5,0,0,1,127.51,127.5h0c31.16,53.44,47,112.61,47,175.86,0,76-22.5,145.28-66.86,206S681.13,817.76,610.87,841.1l-.2,0c-8.62,1.61-15.1.4-19.25-3.58a19.56,19.56,0,0,1-6.15-14.69V727c0-28.77-7.77-50.09-23.09-63.37l-2.61-2.26L563,661a309,309,0,0,0,46.33-8.16,183.89,183.89,0,0,0,42.35-17.55,126.25,126.25,0,0,0,36.38-29.86c9.66-11.71,17.66-27.59,23.79-47.19s9.24-42.46,9.24-67.92c0-36.1-11.93-67.23-35.48-92.55l-.65-.7.36-.89c10.93-26.86,9.79-57.44-3.36-90.88-8.12-2.31-19.94-.57-35.15,5.16a243.43,243.43,0,0,0-41.53,19.85l-17.81,11.27-.64-.18a326.43,326.43,0,0,0-173.66,0l-.67.19-.58-.4c-5.09-3.49-11.56-7.6-19.23-12.23-8.07-4.84-20.76-10.69-37.7-17.37-16.44-6.48-29-8.59-37.38-6.29-12.88,33.42-13.87,64-2.93,90.85l.36.89-.65.7c-23.54,25.34-35.48,56.49-35.48,92.58,0,25.45,3.11,48.23,9.24,67.69s14,35.25,23.56,47.22a121.56,121.56,0,0,0,36.15,30,182.91,182.91,0,0,0,42.34,17.58A309.36,309.36,0,0,0,436.54,661l3.34.35-2.5,2.25c-11.78,10.62-19.1,26-21.76,45.89l-.11.81-.74.35A93.34,93.34,0,0,1,394,717.6a132.35,132.35,0,0,1-26.2,2.29c-10.26,0-20.55-3.37-30.59-10S318.57,693.54,311.52,681A72.09,72.09,0,0,0,290,657.86c-8.74-5.92-16.12-9.51-21.94-10.66l-5.11-.77a39.4,39.4,0,0,0-10.59-.21,15.15,15.15,0,0,0-5.53,1.49c-2.26,1.27-2,2.39-1.62,3.34A22.46,22.46,0,0,0,249,657a32.17,32.17,0,0,0,5.65,5.24l.58.41a44.27,44.27,0,0,0,4.48,2.76c6.1,3.3,12.22,8.9,18.2,16.65,6.68,8.72,11.42,16.4,14.49,23.49L297,716.1a56.22,56.22,0,0,0,19.47,27.23,69.18,69.18,0,0,0,29.79,13.33,190.14,190.14,0,0,0,31.34,3.16,130.48,130.48,0,0,0,24.92-1.56l12.19-2.12v1.78c0,11.43.09,25,.26,40.41q.09,12.17.16,18.31,0,5.6.05,6.24a19.3,19.3,0,0,1-6.39,14.74C405.74,840.43,401.55,841.85,396.27,841.85ZM390,838.22c7.6,1.4,13.24.46,16.76-2.8a16.19,16.19,0,0,0,5.43-12.54q0-.64-.05-6.21-.06-6.17-.16-18.31c-.16-14.6-.25-27.59-.25-38.65L403,761.22a134.82,134.82,0,0,1-25.5,1.6,192.72,192.72,0,0,1-31.82-3.21,72.07,72.07,0,0,1-31.07-13.89,59.28,59.28,0,0,1-20.48-28.59l-4.53-10.39c-2.93-6.78-7.67-14.46-14.11-22.86-5.72-7.42-11.52-12.75-17.24-15.84a46.38,46.38,0,0,1-4.79-2.95l-.59-.42a35.21,35.21,0,0,1-6.18-5.72,25.35,25.35,0,0,1-4.32-6.73c-.71-1.66-1.26-4.79,2.9-7.12a18,18,0,0,1,6.65-1.86,42.55,42.55,0,0,1,11.4.23l5.17.77c6.29,1.24,14,5,23.12,11.14a75.26,75.26,0,0,1,22.47,24.1c6.83,12.17,15.15,21.55,24.75,27.91s19.27,9.5,28.93,9.5a129.3,129.3,0,0,0,25.59-2.23,90.69,90.69,0,0,0,19.37-6.35c2.66-18.83,9.46-33.83,20.24-44.65a306.55,306.55,0,0,1-43.56-7.89,185.55,185.55,0,0,1-43-17.86,124.43,124.43,0,0,1-37-30.78c-9.78-12.25-17.88-28.47-24.08-48.19s-9.38-42.83-9.38-68.59c0-36.54,12-68.13,35.64-93.92-10.94-27.57-9.75-58.81,3.53-92.87l.26-.67.69-.22c9.16-2.87,22.26-.85,40.06,6.16,17.1,6.74,29.93,12.66,38.15,17.59,7.43,4.48,13.76,8.5,18.8,11.94a329.26,329.26,0,0,1,174,0l16.7-10.57a247,247,0,0,1,42.06-20.12c16.29-6.14,29-7.82,37.79-5l.68.22.26.66c13.56,34.08,14.89,65.33,4,92.91,23.64,25.76,35.63,57.34,35.63,93.89,0,25.77-3.15,48.92-9.38,68.81s-14.43,36.19-24.34,48.2a129,129,0,0,1-37.23,30.58,187.32,187.32,0,0,1-43,17.84,308.46,308.46,0,0,1-43.49,7.87c14.38,14,21.66,35.26,21.66,63.37v95.86a16.71,16.71,0,0,0,5.22,12.53c3.41,3.25,9,4.2,16.53,2.81,69.61-23.14,127.18-65.37,171.09-125.51s66.28-128.86,66.28-204.2c0-62.71-15.71-121.38-46.6-174.35h0A347.52,347.52,0,0,0,674.36,207.75c-53-30.92-111.65-46.6-174.36-46.6s-121.39,15.68-174.38,46.6A347.39,347.39,0,0,0,199.21,334.16c-30.92,53-46.6,111.64-46.6,174.37,0,75.32,22.29,144,66.25,204.21S320.41,815.12,390,838.22Z" transform="translate(-139.61 -148.15)"/></g></svg>